<mxfile host="app.diagrams.net" agent="Mozilla/5.0 (Windows NT 10.0; Win64; x64) AppleWebKit/537.36 (KHTML, like Gecko) Chrome/130.0.0.0 Safari/537.36" version="24.8.3">
  <diagram name="Página-1" id="tNbT-hRWDwLjMp5gfQlE">
    <mxGraphModel dx="1434" dy="780" grid="1" gridSize="10" guides="1" tooltips="1" connect="1" arrows="1" fold="1" page="1" pageScale="1" pageWidth="827" pageHeight="1169" math="0" shadow="0">
      <root>
        <mxCell id="0" />
        <mxCell id="1" parent="0" />
        <mxCell id="mAhOd17AUSU8kwqNEtr2-4" value="Usuárío" style="shape=umlActor;html=1;verticalLabelPosition=bottom;verticalAlign=top;align=center;" vertex="1" parent="1">
          <mxGeometry x="170" y="280" width="30" height="60" as="geometry" />
        </mxCell>
        <mxCell id="mAhOd17AUSU8kwqNEtr2-6" value="Solicitar confirmação&amp;nbsp;&lt;div&gt;de exclusão&lt;/div&gt;" style="ellipse;whiteSpace=wrap;html=1;" vertex="1" parent="1">
          <mxGeometry x="344" y="400" width="140" height="70" as="geometry" />
        </mxCell>
        <mxCell id="mAhOd17AUSU8kwqNEtr2-15" value="" style="rounded=0;orthogonalLoop=1;jettySize=auto;html=1;endArrow=none;endFill=0;" edge="1" parent="1" source="mAhOd17AUSU8kwqNEtr2-7" target="mAhOd17AUSU8kwqNEtr2-4">
          <mxGeometry relative="1" as="geometry" />
        </mxCell>
        <mxCell id="mAhOd17AUSU8kwqNEtr2-7" value="Atualizar funcionário" style="ellipse;whiteSpace=wrap;html=1;" vertex="1" parent="1">
          <mxGeometry x="290" y="280" width="140" height="70" as="geometry" />
        </mxCell>
        <mxCell id="mAhOd17AUSU8kwqNEtr2-14" style="rounded=0;orthogonalLoop=1;jettySize=auto;html=1;endArrow=none;endFill=0;" edge="1" parent="1" source="mAhOd17AUSU8kwqNEtr2-8" target="mAhOd17AUSU8kwqNEtr2-4">
          <mxGeometry relative="1" as="geometry" />
        </mxCell>
        <mxCell id="mAhOd17AUSU8kwqNEtr2-8" value="Consultar funcionário" style="ellipse;whiteSpace=wrap;html=1;" vertex="1" parent="1">
          <mxGeometry x="250" y="200" width="140" height="70" as="geometry" />
        </mxCell>
        <mxCell id="mAhOd17AUSU8kwqNEtr2-13" value="" style="rounded=0;orthogonalLoop=1;jettySize=auto;html=1;endArrow=none;endFill=0;" edge="1" parent="1" source="mAhOd17AUSU8kwqNEtr2-9" target="mAhOd17AUSU8kwqNEtr2-4">
          <mxGeometry relative="1" as="geometry" />
        </mxCell>
        <mxCell id="mAhOd17AUSU8kwqNEtr2-9" value="Cadastrar funcionário" style="ellipse;whiteSpace=wrap;html=1;" vertex="1" parent="1">
          <mxGeometry x="115" y="140" width="140" height="70" as="geometry" />
        </mxCell>
        <mxCell id="mAhOd17AUSU8kwqNEtr2-17" value="" style="rounded=0;orthogonalLoop=1;jettySize=auto;html=1;endArrow=none;endFill=0;" edge="1" parent="1" source="mAhOd17AUSU8kwqNEtr2-10" target="mAhOd17AUSU8kwqNEtr2-4">
          <mxGeometry relative="1" as="geometry" />
        </mxCell>
        <mxCell id="mAhOd17AUSU8kwqNEtr2-10" value="Deletar funcionario" style="ellipse;whiteSpace=wrap;html=1;" vertex="1" parent="1">
          <mxGeometry x="115" y="390" width="140" height="70" as="geometry" />
        </mxCell>
        <mxCell id="mAhOd17AUSU8kwqNEtr2-18" value="&amp;lt;&amp;lt;include&amp;gt;&amp;gt;" style="edgeStyle=none;html=1;endArrow=open;verticalAlign=bottom;dashed=1;labelBackgroundColor=none;rounded=0;" edge="1" parent="1" source="mAhOd17AUSU8kwqNEtr2-10" target="mAhOd17AUSU8kwqNEtr2-6">
          <mxGeometry width="160" relative="1" as="geometry">
            <mxPoint x="330" y="400" as="sourcePoint" />
            <mxPoint x="490" y="400" as="targetPoint" />
          </mxGeometry>
        </mxCell>
      </root>
    </mxGraphModel>
  </diagram>
</mxfile>
